# xmcd
#
# Track frame offsets: 
#        150
#        16237
#        31375
#        46590
#        63577
#        79685
#        94830
#        110362
#        124227
#        140642
#
# Disc length: 2076 seconds
#
# Revision: 3
# Processed by: cddbd v1.5.2PL0 Copyright (c) Steve Scherf et al.
# Submitted via: ExactAudioCopyFreeDBPlugin 1.0
#
DISCID=7e081a0a
DTITLE=The Kinleys - Just Between You And Me
DYEAR=1997
DGENRE=Country
TTITLE0=Just Between You And Me
TTITLE1=Talk To Me
TTITLE2=You Make It So Easy
TTITLE3=Ooh, Aah  Crazy Kind Of Love Thing
TTITLE4=Please
TTITLE5=The Real Thing
TTITLE6=Takin' Our Own Sweet Time
TTITLE7=Love Rules
TTITLE8=Contradiction
TTITLE9=Dance In The Boat
EXTD=
EXTT0=
EXTT1=
EXTT2=
EXTT3=
EXTT4=
EXTT5=
EXTT6=
EXTT7=
EXTT8=
EXTT9=
PLAYORDER=
